<svg width="160" height="59" viewBox="0 0 160 59" fill="none" xmlns="http://www.w3.org/2000/svg">
<path d="M160.001 0H144.57V6.09239H153.987V15.6318H160.001V0Z" fill="#A51A43"/>
<path d="M153.986 21.6445V52.9081H109.911H107.774H0V59.0005H107.774H109.911H160V58.1989V52.9081V21.6445H153.986Z" fill="#7A442D"/>
<path d="M138.635 0H6.01385H1.3452H0V46.8152H6.01385V6.09239H138.635V0Z" fill="#7A442D"/>
<path d="M26.1122 29.581C29.1191 29.581 30.86 27.7373 30.86 25.3324C30.86 22.6068 28.9608 21.1639 26.0331 21.1639H21.3644V29.581H26.1122ZM15.4297 15.793H26.5078C32.9965 15.793 36.8738 19.6408 36.8738 25.3324C36.8738 31.6652 31.9678 34.9519 25.8748 34.9519H21.3644V43.2087H15.4297V15.793Z" fill="#A61744"/>
<path d="M58.7924 15.793H65.2811L54.836 36.956C52.4621 41.7658 49.7717 43.6096 45.9734 43.6096C43.9161 43.6096 41.8587 43.0484 40.1179 42.0063L42.4126 37.5973C43.3622 38.1585 44.47 38.4791 45.6569 38.4791C46.7647 38.4791 47.9517 37.9981 49.0595 36.3147L38.2188 15.793H44.8656L52.2247 30.3025L58.7924 15.793Z" fill="#A61744"/>
<path d="M65.043 29.5004C65.2012 21.4841 71.6899 15.1512 79.6028 15.3116C83.401 15.3917 87.041 16.995 89.6523 19.8007L86.0914 23.9692C84.0341 22.0453 82.2141 20.923 79.128 20.923C74.5385 20.923 71.2942 24.7708 71.2942 29.5806C71.2942 34.3904 74.5385 38.2382 79.128 38.2382C82.2141 38.2382 84.1132 36.9556 86.2497 35.0317L90.0479 39.12C87.2784 42.1662 84.1923 43.7695 78.9698 43.7695C71.3733 43.8496 65.2012 37.7572 65.043 30.1417C65.1221 29.8211 65.1221 29.6608 65.043 29.5004Z" fill="#A61744"/>
<path d="M117.902 43.2069H112.046V25.2503L100.177 43.2069H94.5586V15.7109H100.493V33.7476L112.363 15.7109H117.902V43.2069Z" fill="#A61744"/>
<path d="M138.636 32.9479C136.42 34.1503 133.967 34.8718 131.514 34.9519C126.133 34.9519 122.414 32.0661 122.414 25.7332V15.793H128.349V24.0498C128.349 27.4968 129.694 29.4207 132.701 29.4207C134.837 29.4207 136.895 28.8595 138.636 27.6571V15.793H144.57V43.2889H138.636V32.9479Z" fill="#A61744"/>
</svg>
