<svg width="43" height="44" viewBox="0 0 43 44" fill="none" xmlns="http://www.w3.org/2000/svg">
<path d="M36.1141 0.48598C36.5274 0.119682 37.1595 0.157813 37.5258 0.571146L42.9551 6.69764L37.5258 12.8241C37.1595 13.2375 36.5274 13.2756 36.1141 12.9093C35.7008 12.543 35.6627 11.911 36.0289 11.4977L39.3988 7.69513H9.21809C8.9915 7.69513 8.71083 7.69537 8.41143 7.69562L8.40356 7.69563C8.11463 7.69587 7.80857 7.69613 7.51706 7.69621C7.51758 8.31153 7.51809 8.94036 7.51809 9.42675V39.9523L11.2454 36.5718C11.6545 36.2008 12.2869 36.2316 12.6579 36.6407C13.0289 37.0498 12.9981 37.6822 12.589 38.0532L6.51821 43.5592L0.445513 38.0533C0.0363584 37.6824 0.00539571 37.05 0.376356 36.6408C0.747316 36.2317 1.37972 36.2007 1.78888 36.5717L5.51809 39.9528V9.42675C5.51809 8.92223 5.51754 8.26481 5.517 7.62744L5.51562 5.69141L6.51999 5.69514C6.97475 5.69683 7.72695 5.69619 8.39437 5.69563L8.40358 5.69562C8.70442 5.69537 8.98763 5.69513 9.21809 5.69513H39.3943L36.0289 1.89763C35.6627 1.48429 35.7008 0.852277 36.1141 0.48598Z" fill="#A61744"/>
<path d="M41.618 38.4766C42.1702 38.4766 42.618 38.9243 42.618 39.4766C42.618 39.6831 42.6199 39.9295 42.6221 40.1989V40.1999C42.6271 40.8249 42.633 41.5729 42.6177 42.2306L42.5949 43.2073H38.918C38.3657 43.2073 37.918 42.7596 37.918 42.2073C37.918 41.655 38.3657 41.2073 38.918 41.2073H40.6276C40.6274 40.8838 40.6248 40.5623 40.6224 40.2591C40.6201 39.9781 40.618 39.7129 40.618 39.4766C40.618 38.9243 41.0657 38.4766 41.618 38.4766Z" fill="#A61744"/>
<path d="M30.8164 41.2109C30.2641 41.2109 29.8164 41.6587 29.8164 42.2109C29.8164 42.7632 30.2641 43.2109 30.8164 43.2109H33.5164C34.0687 43.2109 34.5164 42.7632 34.5164 42.2109C34.5164 41.6587 34.0687 41.2109 33.5164 41.2109H30.8164Z" fill="#A61744"/>
<path d="M21.7148 42.2109C21.7148 41.6587 22.1626 41.2109 22.7148 41.2109H25.4148C25.9671 41.2109 26.4148 41.6587 26.4148 42.2109C26.4148 42.7632 25.9671 43.2109 25.4148 43.2109H22.7148C22.1626 43.2109 21.7148 42.7632 21.7148 42.2109Z" fill="#A61744"/>
<path d="M14.6172 41.2109C14.0649 41.2109 13.6172 41.6587 13.6172 42.2109C13.6172 42.7632 14.0649 43.2109 14.6172 43.2109H17.3172C17.8695 43.2109 18.3172 42.7632 18.3172 42.2109C18.3172 41.6587 17.8695 41.2109 17.3172 41.2109H14.6172Z" fill="#A61744"/>
<path d="M41.6211 30.2812C42.1734 30.2812 42.6211 30.729 42.6211 31.2812V34.012C42.6211 34.5642 42.1734 35.012 41.6211 35.012C41.0688 35.012 40.6211 34.5642 40.6211 34.012V31.2812C40.6211 30.729 41.0688 30.2812 41.6211 30.2812Z" fill="#A61744"/>
<path d="M42.6211 23.0859C42.6211 22.5337 42.1734 22.0859 41.6211 22.0859C41.0688 22.0859 40.6211 22.5337 40.6211 23.0859V25.8167C40.6211 26.369 41.0688 26.8167 41.6211 26.8167C42.1734 26.8167 42.6211 26.369 42.6211 25.8167V23.0859Z" fill="#A61744"/>
<path d="M41.6211 13.8906C42.1734 13.8906 42.6211 14.3383 42.6211 14.8906V17.6215C42.6211 18.1737 42.1734 18.6215 41.6211 18.6215C41.0688 18.6215 40.6211 18.1737 40.6211 17.6215V14.8906C40.6211 14.3383 41.0688 13.8906 41.6211 13.8906Z" fill="#A61744"/>
<path fill-rule="evenodd" clip-rule="evenodd" d="M28.5599 16.4877C28.3727 16.2212 28.0675 16.0626 27.7418 16.0625C27.4161 16.0624 27.1108 16.2209 26.9235 16.4874C24.5069 19.9246 21.8002 24.1915 20.685 26.5917C20.6809 26.6005 20.6769 26.6093 20.6731 26.6182C20.1189 27.9079 20.2434 29.3101 20.8195 30.3985C21.3955 31.4868 22.4857 32.3543 23.8889 32.3543H26.7461V36.5527C26.7461 37.105 27.1938 37.5527 27.7461 37.5527C28.2984 37.5527 28.7461 37.105 28.7461 36.5527V32.3543H31.5942C32.9973 32.3543 34.0871 31.4874 34.663 30.3991C35.2389 29.3108 35.3631 27.909 34.8104 26.6192C34.8065 26.6099 34.8024 26.6008 34.7981 26.5917C33.6827 24.191 30.8832 19.7956 28.5599 16.4877ZM23.8889 30.3543H26.7461V29.1044H24.1698L24.1707 28.1035C24.1713 27.5086 24.1692 26.6155 24.168 26.159C24.1665 25.6067 24.613 25.1578 25.1652 25.1563C25.7175 25.1547 26.1665 25.6012 26.168 26.1535C26.1686 26.3878 26.1695 26.738 26.1701 27.1044H26.7461V24.8594C26.7461 24.3071 27.1938 23.8594 27.7461 23.8594C28.2984 23.8594 28.7461 24.3071 28.7461 24.8594V30.3543H31.5942C32.1003 30.3543 32.5863 30.0475 32.8952 29.4637C33.2023 28.8834 33.2729 28.1204 32.9776 27.4198C32.0585 25.4478 29.8403 21.8907 27.7409 18.818C25.5871 21.9643 23.4275 25.4411 22.5053 27.4203C22.2095 28.1195 22.2798 28.8822 22.5872 29.4629C22.8965 30.0472 23.3829 30.3543 23.8889 30.3543Z" fill="#A61744"/>
</svg>
