<svg width="17" height="18" viewBox="0 0 17 18" fill="none" xmlns="http://www.w3.org/2000/svg">
<path d="M13.3234 9.09471C12.9548 9.09471 12.656 9.39699 12.656 9.76992V14.8916C12.656 15.4607 12.1984 15.9236 11.6359 15.9236H2.35486C1.79241 15.9236 1.33479 15.4607 1.33479 14.8916V5.50186C1.33479 4.93282 1.79241 4.46985 2.35486 4.46985H7.41726C7.78584 4.46985 8.08466 4.16753 8.08466 3.79464C8.08466 3.42174 7.78584 3.11942 7.41726 3.11942H2.35486C1.0564 3.11942 0 4.1882 0 5.50186V14.8916C0 16.2053 1.0564 17.274 2.35486 17.274H11.6359C12.9344 17.274 13.9908 16.2053 13.9908 14.8916V9.76992C13.9908 9.39699 13.692 9.09471 13.3234 9.09471Z" fill="white"/>
<path d="M15.8545 0.558594H10.7921C10.4235 0.558594 10.1247 0.860908 10.1247 1.23381C10.1247 1.6067 10.4235 1.90902 10.7921 1.90902H15.1871V6.35549C15.1871 6.72839 15.4859 7.03071 15.8545 7.03071C16.2231 7.03071 16.5219 6.72839 16.5219 6.35549V1.23381C16.5219 0.860908 16.2231 0.558594 15.8545 0.558594Z" fill="white"/>
<path d="M16.3265 0.756369C16.0659 0.492709 15.6433 0.492709 15.3826 0.756369L6.1016 10.1461C5.84096 10.4098 5.84096 10.8373 6.1016 11.101C6.2319 11.2328 6.40274 11.2988 6.57354 11.2988C6.74437 11.2988 6.91518 11.2328 7.04548 11.101L16.3265 1.71127C16.5871 1.44758 16.5871 1.02006 16.3265 0.756369Z" fill="white"/>
</svg>
