<svg width="21" height="28" viewBox="0 0 21 28" fill="none" xmlns="http://www.w3.org/2000/svg">
<path d="M1.81916 14.3997L1.81926 14.3999C3.97143 19.1645 8.06021 24.14 9.23984 25.5281L9.24054 25.5289C9.5174 25.8539 9.92359 26.0438 10.3541 26.0438C10.7847 26.0438 11.1909 25.8539 11.4677 25.5289L11.4685 25.528C12.6476 24.1403 16.7363 19.165 18.8892 14.4L18.8893 14.3998C19.4345 13.1925 19.7085 11.891 19.7085 10.5382V10.5381C19.708 5.33637 15.5235 1.08594 10.3539 1.08594C5.18451 1.08594 1 5.33639 1 10.5382C1 11.8912 1.27429 13.1925 1.81916 14.3997ZM13.6934 10.5379V10.538C13.6936 12.4174 12.1837 13.9283 10.3539 13.9283C8.52443 13.9283 7.01439 12.4174 7.01439 10.5379C7.01439 8.65821 8.52447 7.14735 10.3539 7.14735C12.1833 7.14735 13.6934 8.65821 13.6934 10.5379Z" fill="#A61744" stroke="white" stroke-width="2"/>
</svg>
